<mxfile host="app.diagrams.net" modified="2022-10-15T06:07:39.526Z" agent="5.0 (Windows NT 10.0; Win64; x64) AppleWebKit/537.36 (KHTML, like Gecko) Chrome/106.0.0.0 Safari/537.36" etag="X1KxDeETtwnWl50U9Kcx" version="20.4.1" type="github">
  <diagram id="q60qZihxep97BMLtBMVm" name="第 1 页">
    <mxGraphModel dx="1422" dy="754" grid="0" gridSize="10" guides="1" tooltips="1" connect="1" arrows="1" fold="1" page="1" pageScale="1" pageWidth="827" pageHeight="1169" math="0" shadow="0">
      <root>
        <mxCell id="0" />
        <mxCell id="1" parent="0" />
        <mxCell id="LTaZwErT_vMMwNfXjec_-8" value="" style="edgeStyle=orthogonalEdgeStyle;rounded=0;orthogonalLoop=1;jettySize=auto;html=1;startArrow=block;startFill=0;endArrow=none;endFill=0;" edge="1" parent="1" source="LTaZwErT_vMMwNfXjec_-1">
          <mxGeometry relative="1" as="geometry">
            <mxPoint x="331" y="566" as="targetPoint" />
          </mxGeometry>
        </mxCell>
        <mxCell id="LTaZwErT_vMMwNfXjec_-1" value="PackageManager" style="swimlane;fontStyle=3;align=center;verticalAlign=top;childLayout=stackLayout;horizontal=1;startSize=26;horizontalStack=0;resizeParent=1;resizeParentMax=0;resizeLast=0;collapsible=1;marginBottom=0;" vertex="1" parent="1">
          <mxGeometry x="195" y="355" width="272" height="131" as="geometry" />
        </mxCell>
        <mxCell id="LTaZwErT_vMMwNfXjec_-3" value="" style="line;strokeWidth=1;fillColor=none;align=left;verticalAlign=middle;spacingTop=-1;spacingLeft=3;spacingRight=3;rotatable=0;labelPosition=right;points=[];portConstraint=eastwest;strokeColor=inherit;" vertex="1" parent="LTaZwErT_vMMwNfXjec_-1">
          <mxGeometry y="26" width="272" height="8" as="geometry" />
        </mxCell>
        <mxCell id="LTaZwErT_vMMwNfXjec_-4" value="+ 获取一个应用程序的所有信息（ApplicationInfo）&#xa;+ 获取四大组件的信息&#xa;+ 查询 permission 的相关信息&#xa;+ 获取包的信息&#xa;+ 安装、卸载 APK" style="text;strokeColor=none;fillColor=none;align=left;verticalAlign=top;spacingLeft=4;spacingRight=4;overflow=hidden;rotatable=0;points=[[0,0.5],[1,0.5]];portConstraint=eastwest;" vertex="1" parent="LTaZwErT_vMMwNfXjec_-1">
          <mxGeometry y="34" width="272" height="97" as="geometry" />
        </mxCell>
        <mxCell id="LTaZwErT_vMMwNfXjec_-10" value="ApplicationPackageManager" style="swimlane;fontStyle=1;align=center;verticalAlign=top;childLayout=stackLayout;horizontal=1;startSize=26;horizontalStack=0;resizeParent=1;resizeParentMax=0;resizeLast=0;collapsible=1;marginBottom=0;" vertex="1" parent="1">
          <mxGeometry x="251" y="568" width="160" height="86" as="geometry" />
        </mxCell>
        <mxCell id="LTaZwErT_vMMwNfXjec_-11" value="+ IPackageManager" style="text;strokeColor=none;fillColor=none;align=left;verticalAlign=top;spacingLeft=4;spacingRight=4;overflow=hidden;rotatable=0;points=[[0,0.5],[1,0.5]];portConstraint=eastwest;" vertex="1" parent="LTaZwErT_vMMwNfXjec_-10">
          <mxGeometry y="26" width="160" height="26" as="geometry" />
        </mxCell>
        <mxCell id="LTaZwErT_vMMwNfXjec_-12" value="" style="line;strokeWidth=1;fillColor=none;align=left;verticalAlign=middle;spacingTop=-1;spacingLeft=3;spacingRight=3;rotatable=0;labelPosition=right;points=[];portConstraint=eastwest;strokeColor=inherit;" vertex="1" parent="LTaZwErT_vMMwNfXjec_-10">
          <mxGeometry y="52" width="160" height="8" as="geometry" />
        </mxCell>
        <mxCell id="LTaZwErT_vMMwNfXjec_-13" value="+ ..." style="text;strokeColor=none;fillColor=none;align=left;verticalAlign=top;spacingLeft=4;spacingRight=4;overflow=hidden;rotatable=0;points=[[0,0.5],[1,0.5]];portConstraint=eastwest;" vertex="1" parent="LTaZwErT_vMMwNfXjec_-10">
          <mxGeometry y="60" width="160" height="26" as="geometry" />
        </mxCell>
        <mxCell id="LTaZwErT_vMMwNfXjec_-18" value="PMS" style="html=1;" vertex="1" parent="1">
          <mxGeometry x="546" y="582" width="110" height="50" as="geometry" />
        </mxCell>
        <mxCell id="LTaZwErT_vMMwNfXjec_-19" style="edgeStyle=orthogonalEdgeStyle;rounded=0;orthogonalLoop=1;jettySize=auto;html=1;exitX=1;exitY=0.5;exitDx=0;exitDy=0;startArrow=none;startFill=0;endArrow=open;endFill=0;" edge="1" parent="1" source="LTaZwErT_vMMwNfXjec_-11" target="LTaZwErT_vMMwNfXjec_-18">
          <mxGeometry relative="1" as="geometry" />
        </mxCell>
      </root>
    </mxGraphModel>
  </diagram>
</mxfile>
